ply
format ascii 1.0
comment Exported by [ProBuilder](http://www.procore3d.com/probuilder)
comment 27/12/2020 14:52:23
element vertex 60
property float32 x
property float32 y
property float32 z
property float32 nx
property float32 ny
property float32 nz
property uint8 red
property uint8 green
property uint8 blue
property uint8 alpha
element face 20
property list uint8 int32 vertex_index
end_header
-194.3593 4.923188 173.3454 0.9252627 -0.2313157 0.3006361 255 255 255 255
-194.4548 4.923188 173.6393 0.9252627 -0.2313157 0.3006361 255 255 255 255
-194.8593 2.923188 173.3454 0.9252627 -0.2313157 0.3006361 255 255 255 255
-194.3593 4.923188 173.3454 0.5202361 0.837127 0.1690349 255 255 255 255
-194.4548 4.923188 173.6393 0.5202361 0.837127 0.1690349 255 255 255 255
-194.8593 5.233915 173.3454 0.5202361 0.837127 0.1690349 255 255 255 255
-194.4548 4.923188 173.6393 0.5718438 -0.2313157 0.7870755 255 255 255 255
-194.7048 4.923188 173.8209 0.5718438 -0.2313157 0.7870755 255 255 255 255
-194.8593 2.923188 173.3454 0.5718438 -0.2313157 0.7870755 255 255 255 255
-194.4548 4.923188 173.6393 0.3215236 0.837127 0.4425393 255 255 255 255
-194.7048 4.923188 173.8209 0.3215236 0.837127 0.4425393 255 255 255 255
-194.8593 5.233915 173.3454 0.3215236 0.837127 0.4425393 255 255 255 255
-194.7048 4.923188 173.8209 0 -0.2313157 0.9728788 255 255 255 255
-195.0138 4.923188 173.8209 0 -0.2313157 0.9728788 255 255 255 255
-194.8593 2.923188 173.3454 0 -0.2313157 0.9728788 255 255 255 255
-194.7048 4.923188 173.8209 0 0.837127 0.5470086 255 255 255 255
-195.0138 4.923188 173.8209 0 0.837127 0.5470086 255 255 255 255
-194.8593 5.233915 173.3454 0 0.837127 0.5470086 255 255 255 255
-195.0138 4.923188 173.8209 -0.5718438 -0.2313157 0.7870755 255 255 255 255
-195.2638 4.923188 173.6393 -0.5718438 -0.2313157 0.7870755 255 255 255 255
-194.8593 2.923188 173.3454 -0.5718438 -0.2313157 0.7870755 255 255 255 255
-195.0138 4.923188 173.8209 -0.3215236 0.837127 0.4425393 255 255 255 255
-195.2638 4.923188 173.6393 -0.3215236 0.837127 0.4425393 255 255 255 255
-194.8593 5.233915 173.3454 -0.3215236 0.837127 0.4425393 255 255 255 255
-195.2638 4.923188 173.6393 -0.9252627 -0.2313157 0.300636 255 255 255 255
-195.3593 4.923188 173.3454 -0.9252627 -0.2313157 0.300636 255 255 255 255
-194.8593 2.923188 173.3454 -0.9252627 -0.2313157 0.300636 255 255 255 255
-195.2638 4.923188 173.6393 -0.5202361 0.837127 0.1690349 255 255 255 255
-195.3593 4.923188 173.3454 -0.5202361 0.837127 0.1690349 255 255 255 255
-194.8593 5.233915 173.3454 -0.5202361 0.837127 0.1690349 255 255 255 255
-195.3593 4.923188 173.3454 -0.9252627 -0.2313157 -0.3006361 255 255 255 255
-195.2638 4.923188 173.0515 -0.9252627 -0.2313157 -0.3006361 255 255 255 255
-194.8593 2.923188 173.3454 -0.9252627 -0.2313157 -0.3006361 255 255 255 255
-195.3593 4.923188 173.3454 -0.5202361 0.837127 -0.169035 255 255 255 255
-195.2638 4.923188 173.0515 -0.5202361 0.837127 -0.169035 255 255 255 255
-194.8593 5.233915 173.3454 -0.5202361 0.837127 -0.169035 255 255 255 255
-195.2638 4.923188 173.0515 -0.5718439 -0.2313157 -0.7870754 255 255 255 255
-195.0138 4.923188 172.8699 -0.5718439 -0.2313157 -0.7870754 255 255 255 255
-194.8593 2.923188 173.3454 -0.5718439 -0.2313157 -0.7870754 255 255 255 255
-195.2638 4.923188 173.0515 -0.3215237 0.837127 -0.4425392 255 255 255 255
-195.0138 4.923188 172.8699 -0.3215237 0.837127 -0.4425392 255 255 255 255
-194.8593 5.233915 173.3454 -0.3215237 0.837127 -0.4425392 255 255 255 255
-195.0138 4.923188 172.8699 0 -0.2313157 -0.9728788 255 255 255 255
-194.7048 4.923188 172.8699 0 -0.2313157 -0.9728788 255 255 255 255
-194.8593 2.923188 173.3454 0 -0.2313157 -0.9728788 255 255 255 255
-195.0138 4.923188 172.8699 0 0.837127 -0.5470086 255 255 255 255
-194.7048 4.923188 172.8699 0 0.837127 -0.5470086 255 255 255 255
-194.8593 5.233915 173.3454 0 0.837127 -0.5470086 255 255 255 255
-194.7048 4.923188 172.8699 0.5718439 -0.2313157 -0.7870754 255 255 255 255
-194.4548 4.923188 173.0515 0.5718439 -0.2313157 -0.7870754 255 255 255 255
-194.8593 2.923188 173.3454 0.5718439 -0.2313157 -0.7870754 255 255 255 255
-194.7048 4.923188 172.8699 0.3215236 0.837127 -0.4425392 255 255 255 255
-194.4548 4.923188 173.0515 0.3215236 0.837127 -0.4425392 255 255 255 255
-194.8593 5.233915 173.3454 0.3215236 0.837127 -0.4425392 255 255 255 255
-194.4548 4.923188 173.0515 0.9252627 -0.2313157 -0.3006361 255 255 255 255
-194.3593 4.923188 173.3454 0.9252627 -0.2313157 -0.3006361 255 255 255 255
-194.8593 2.923188 173.3454 0.9252627 -0.2313157 -0.3006361 255 255 255 255
-194.4548 4.923188 173.0515 0.5202361 0.837127 -0.169035 255 255 255 255
-194.3593 4.923188 173.3454 0.5202361 0.837127 -0.169035 255 255 255 255
-194.8593 5.233915 173.3454 0.5202361 0.837127 -0.169035 255 255 255 255
3 0 1 2
3 5 4 3
3 6 7 8
3 11 10 9
3 12 13 14
3 17 16 15
3 18 19 20
3 23 22 21
3 24 25 26
3 29 28 27
3 30 31 32
3 35 34 33
3 36 37 38
3 41 40 39
3 42 43 44
3 47 46 45
3 48 49 50
3 53 52 51
3 54 55 56
3 59 58 57
